<svg xmlns="http://www.w3.org/2000/svg" width="16.749" height="16.749" viewBox="0 0 16.749 16.749">
  <path id="Path_1018" data-name="Path 1018" d="M17.911,12.049a.838.838,0,0,0-.837.837v3.35a.838.838,0,0,1-.837.837H4.512a.838.838,0,0,1-.837-.837v-3.35a.837.837,0,0,0-1.675,0v3.35a2.512,2.512,0,0,0,2.512,2.512H16.236a2.512,2.512,0,0,0,2.512-2.512v-3.35A.838.838,0,0,0,17.911,12.049ZM9.78,13.481a.84.84,0,0,0,.276.176.787.787,0,0,0,.636,0,.84.84,0,0,0,.276-.176l3.35-3.35a.841.841,0,1,0-1.189-1.189l-1.918,1.926V2.837a.837.837,0,1,0-1.675,0v8.031L7.619,8.942A.841.841,0,1,0,6.43,10.131Z" transform="translate(-2 -2)" fill="#2a2b2c"/>
</svg>
