<svg xmlns="http://www.w3.org/2000/svg" width="204.011" height="182.704" viewBox="0 0 204.011 182.704">
  <path id="Intersection_2" data-name="Intersection 2" d="M186.546,0V23.882a45.517,45.517,0,0,0-18.13,7.908,81.346,81.346,0,0,0-31.542-10.258V0H119.113V21.552a80.007,80.007,0,0,0-27.3,8.051,59.983,59.983,0,0,0-22.129-7.887V0H51.928V21.716a60.7,60.7,0,0,0,5.988,120.69,81.268,81.268,0,0,0,146.095-11.949v-57A81.015,81.015,0,0,0,183.8,43.234a28.052,28.052,0,0,1,20.214-1.162V0ZM77.645,140.1a60.571,60.571,0,0,0,29.327-97.742,63.462,63.462,0,0,1,49.077,2.923,44.713,44.713,0,0,0-6.42,23.132,45.751,45.751,0,0,0,40.73,45.346A63.484,63.484,0,0,1,77.645,140.1ZM17.76,81.9A43.148,43.148,0,0,1,60.808,38.758a42.4,42.4,0,0,1,13.9,2.33A80.771,80.771,0,0,0,49.9,123.4,43.047,43.047,0,0,1,17.76,81.9Zm47.006,20.108A63.168,63.168,0,0,1,90.729,50.938a42.919,42.919,0,0,1-21.985,73.1A62.856,62.856,0,0,1,64.766,102.006ZM167.39,68.41a27.231,27.231,0,0,1,3.343-13.119A62.985,62.985,0,0,1,191.18,96.017,27.991,27.991,0,0,1,167.39,68.41Z" transform="translate(204.011 182.704) rotate(180)" fill="#009444"/>
</svg>
